<?xml version="1.0" encoding="UTF-8"?>
<svg id="Layer_2" data-name="Layer 2" xmlns="http://www.w3.org/2000/svg" viewBox="0 0 121.92 121.78">
  <defs>
    <style>
      .cls-1 {
        fill: #f3f8f9;
      }

      .cls-1, .cls-2, .cls-3 {
        stroke: #71abb6;
        stroke-miterlimit: 10;
      }

      .cls-2 {
        fill: #71abb6;
      }

      .cls-3 {
        fill: none;
      }
    </style>
  </defs>
  <g id="Layer_1-2" data-name="Layer 1">
    <circle class="cls-3" cx="61.44" cy="60.11" r="40.97"/>
    <path class="cls-1" d="m51.91,41.73L61.34,2.15l9.46,39.57,24.26-15.06c-5.02,8.17-10.04,16.34-15.06,24.51,13.23,3.13,26.47,6.27,39.7,9.4-13.32,2.99-26.64,5.99-39.96,8.98,5.28,8.43,10.55,16.85,15.83,25.28l-25.23-15.74-8.89,40.43c-3.12-13.36-6.24-26.72-9.36-40.09-8.4,5.25-16.79,10.5-25.19,15.74,5.25-8.51,10.5-17.02,15.74-25.53-13.46-3.05-26.92-6.1-40.38-9.15,13.43-3.08,26.87-6.16,40.3-9.23-4.91-8.17-9.82-16.34-14.72-24.51,8.03,4.99,16.06,9.99,24.09,14.98Z"/>
    <path class="cls-2" d="m36.08,34.96l14.55,14.55c.3-1.7.6-3.4.89-5.11-5.15-3.15-10.3-6.3-15.45-9.45Z"/>
    <polygon class="cls-2" points="61.44 13.81 61.44 60.11 69.95 52.03 61.44 13.81"/>
    <path class="cls-2" d="m72.4,50.06c4.86-4.96,9.72-9.91,14.59-14.87l-9.32,14.84c-1.76.01-3.51.02-5.27.03Z"/>
    <path class="cls-2" d="m61.74,60.83c.13.07,8.16,8.28,8.21,8.18.05-.1,37.94-8.18,37.94-8.18h-46.15Z"/>
    <path class="cls-2" d="m72.24,71.5l-1.31,4.47s15.38,9.96,15.29,9.86c-.1-.1-13.98-14.33-13.98-14.33Z"/>
    <polygon class="cls-2" points="53.1 69.02 60.97 61.64 60.97 105.39 53.1 69.02"/>
    <path class="cls-2" d="m45.61,70.41l4.77,1.1s-13.62,14.35-13.87,14.33,9.11-15.43,9.11-15.43Z"/>
    <polygon class="cls-2" points="14.63 60.11 60.97 60.11 52.42 51.86 14.63 60.11"/>
  </g>
</svg>